<svg width="72" height="72" viewBox="0 0 72 72" fill="none" xmlns="http://www.w3.org/2000/svg">
<path d="M58.5 72H13.5C6.0435 72 0 65.9565 0 58.5V13.5C0 6.0435 6.0435 0 13.5 0H58.5C65.9565 0 72 6.0435 72 13.5V58.5C72 65.9565 65.9565 72 58.5 72Z" fill="#FBDFD1"/>
<path d="M45.3757 18H26.6265C24.3495 18 22.5 19.8495 22.5 22.1243V49.8735C22.5 52.1505 24.3495 54 26.6243 54H45.3735C47.6505 54 49.5 52.1505 49.5 49.8757V22.1243C49.5 19.8495 47.6505 18 45.3757 18V18ZM28.5007 25.4993H36.3757C37.2037 25.4993 37.8765 26.172 37.8765 27C37.8765 27.828 37.2037 28.5007 36.3757 28.5007H28.5007C27.6705 28.5007 27 27.828 27 27C27 26.172 27.6705 25.4993 28.5007 25.4993ZM43.4993 46.5007H28.4985C27.6705 46.5007 27 45.828 27 45C27 44.172 27.6727 43.4993 28.5007 43.4993H43.5015C44.3295 43.4993 45 44.172 45 45C45 45.828 44.3295 46.5007 43.4993 46.5007ZM43.4993 40.5H28.4985C27.6705 40.5 27 39.8295 27 38.9993C27 38.169 27.6727 37.4985 28.5007 37.4985H43.5015C44.3295 37.4985 45.0022 38.1713 45.0022 38.9993C45.0022 39.8273 44.3295 40.5 43.4993 40.5V40.5ZM43.4993 34.4993H28.4985C27.6705 34.4993 26.9977 33.8265 26.9977 32.9985C26.9977 32.1705 27.6705 31.5 28.5007 31.5H43.5015C44.3295 31.5 45 32.1705 45 33.0007C45 33.831 44.3295 34.4993 43.4993 34.4993Z" fill="#F07B3F"/>
</svg>
