<svg width="32" height="32" viewBox="0 0 32 32" fill="none" xmlns="http://www.w3.org/2000/svg">
<rect width="32" height="32" rx="4" fill="#FFF5D9"/>
<g clip-path="url(#clip0)">
<path d="M9.28911 22.711C9.50121 22.9231 9.50125 23.2564 9.28911 23.4686L7.77389 24.9838C7.56175 25.1959 7.22839 25.1959 7.01628 24.9838C6.80414 24.7716 6.80414 24.4383 7.01628 24.2262L8.5315 22.711C8.74364 22.4988 9.07696 22.4988 9.28911 22.711Z" fill="#FFD460"/>
<path d="M12.3196 23.4685L10.8044 24.9837C10.595 25.1931 10.2562 25.1931 10.0468 24.9837C9.83744 24.7743 9.83741 24.4355 10.0468 24.2261L11.562 22.7109C11.7714 22.5015 12.1103 22.5015 12.3196 22.7109C12.529 22.9203 12.529 23.2591 12.3196 23.4685Z" fill="#FFC21D"/>
<path d="M9.28912 20.438L7.7739 21.9532C7.56451 22.1626 7.22565 22.1626 7.0163 21.9532C6.8069 21.7439 6.8069 21.405 7.0163 21.1956L8.53151 19.6804C8.7409 19.471 9.07976 19.471 9.28912 19.6804C9.49848 19.8898 9.49848 20.2286 9.28912 20.438Z" fill="#FFD460"/>
<path d="M23.9856 12.4027L15.8729 13.476L14.7365 21.5257L15.3699 22.9274C15.7265 22.8919 16.0738 22.7452 16.3464 22.4727L24.6801 14.139C24.9527 13.8664 25.0993 13.519 25.1348 13.1625L23.9856 12.4027Z" fill="#FFEAB2"/>
<path d="M16.1342 15.8662L16.1493 15.8813L15.3766 22.9271C14.9069 22.9726 14.4296 22.8286 14.0735 22.4725L9.52785 17.9269C9.22478 17.6238 9.07325 17.2299 9.06567 16.8283L13.1947 14.0782L16.1342 15.8662Z" fill="#FFD566"/>
<path d="M20.1344 7.32027L24.68 11.866C25.0361 12.222 25.1801 12.6993 25.1346 13.169L18.0888 13.9418L18.0812 13.9191L16.7402 10.1083L19.0358 6.85809C19.4374 6.86566 19.8313 7.0172 20.1344 7.32027Z" fill="#FFD566"/>
<path d="M7.01624 24.9837L9.28909 22.7109C9.5012 22.923 9.50124 23.2563 9.28909 23.4685L7.77388 24.9837C7.5617 25.1959 7.22834 25.1958 7.01624 24.9837Z" fill="#FFC21D"/>
<path d="M11.8008 20.1998L16.1343 15.8663L16.1494 15.8814L15.3767 22.9272C14.907 22.9727 14.4296 22.8287 14.0736 22.4727L11.8008 20.1998Z" fill="#FFD566"/>
<path d="M22.4074 9.5932L24.6803 11.8661C25.0363 12.2221 25.1803 12.6994 25.1348 13.1691L18.089 13.9419L18.0814 13.9192L22.4074 9.5932Z" fill="#FFD566"/>
<path d="M19.036 6.85815L18.1041 13.8964L17.9753 14.8434C17.9072 15.3207 17.5283 15.6995 17.051 15.7677L16.104 15.8965L9.06572 16.8284C9.05062 16.4041 9.20215 15.9798 9.5279 15.6541L17.8617 7.32033C18.1874 6.99454 18.6117 6.843 19.036 6.85815Z" fill="#F07B3F"/>
</g>
<defs>
<clipPath id="clip0">
<rect width="18.2857" height="18.2857" fill="white" transform="translate(6.85718 6.85712)"/>
</clipPath>
</defs>
</svg>
