<svg width="32" height="32" viewBox="0 0 32 32" fill="none" xmlns="http://www.w3.org/2000/svg">
<rect width="32" height="32" rx="4" fill="#FFF5D9"/>
<g clip-path="url(#clip0)">
<path d="M14.5808 15.9839C14.2795 15.9839 14.0352 15.7396 14.0352 15.4382V14.1489C14.0352 13.8476 14.2794 13.6033 14.5808 13.6033C14.8822 13.6033 15.1264 13.8476 15.1264 14.1489V15.4382C15.1264 15.7396 14.8822 15.9839 14.5808 15.9839Z" fill="#FEEB70"/>
<path d="M17.4193 15.9839C17.1179 15.9839 16.8737 15.7396 16.8737 15.4382V14.1489C16.8737 13.8476 17.1179 13.6033 17.4193 13.6033C17.7206 13.6033 17.9649 13.8476 17.9649 14.1489V15.4382C17.9649 15.7396 17.7207 15.9839 17.4193 15.9839Z" fill="#FEEB70"/>
<path d="M23.5494 14.5186C23.5486 14.5186 23.5479 14.5186 23.5471 14.5186L21.2632 14.5164C20.8065 14.5157 20.3784 14.3151 20.0881 13.9658C19.8014 13.6209 19.6835 13.1708 19.7646 12.731C19.767 12.7177 19.77 12.7045 19.7735 12.6913L19.8956 12.2267C19.2293 11.9091 17.7225 11.296 16.0016 11.2871C14.2794 11.2774 12.7716 11.8909 12.1061 12.2084L12.2262 12.6756C12.2295 12.6883 12.2323 12.7012 12.2347 12.7141C12.3146 13.1542 12.1954 13.6039 11.9077 13.948C11.6169 14.2958 11.189 14.4952 10.7336 14.4952C10.7328 14.4952 10.7321 14.4952 10.7313 14.4952L8.44732 14.4931C7.78032 14.4921 7.19833 14.0724 6.99883 13.4488C6.69129 12.4875 6.88626 11.4904 7.56258 10.5653C8.26682 9.60212 9.49842 8.73448 11.0306 8.12234C12.554 7.5137 14.3224 7.17795 16.0086 7.18217C17.6946 7.18456 19.4609 7.52381 20.9822 8.13723C22.5116 8.75402 23.7404 9.62544 24.442 10.5909C25.1164 11.5189 25.3088 12.5174 24.9982 13.4785C24.7972 14.1008 24.2151 14.5185 23.5494 14.5186Z" fill="#F07B3F"/>
<path d="M22.6892 24.8179H9.3109C9.00958 24.8179 8.76526 24.5736 8.76526 24.2722V22.0275C8.76526 20.0911 9.50072 18.2525 10.8361 16.8503L12.5393 15.0619C12.6423 14.9538 12.7851 14.8926 12.9344 14.8926H19.0656C19.2149 14.8926 19.3577 14.9538 19.4607 15.0619L21.1639 16.8503C22.4993 18.2525 23.2347 20.0911 23.2347 22.0275V24.2722C23.2348 24.5736 22.9905 24.8179 22.6892 24.8179Z" fill="#F07B3F"/>
<path d="M16.0001 22.8233C14.4254 22.8233 13.1444 21.5422 13.1444 19.9676C13.1444 18.393 14.4255 17.1119 16.0001 17.1119C17.5747 17.1119 18.8557 18.393 18.8557 19.9676C18.8557 21.5422 17.5747 22.8233 16.0001 22.8233Z" fill="#FFD460"/>
<path d="M20.9822 8.13732C19.461 7.52389 17.6947 7.18468 16.0086 7.18225C16.0057 7.18225 16.0027 7.18236 15.9998 7.18232V11.2872C16.0004 11.2872 16.001 11.2872 16.0016 11.2872C17.7225 11.296 19.2293 11.9091 19.8956 12.2268L19.7735 12.6914C19.77 12.7045 19.7671 12.7178 19.7646 12.7311C19.6835 13.1709 19.8013 13.6209 20.0881 13.9659C20.3783 14.3151 20.8066 14.5158 21.2632 14.5165L23.5471 14.5186C23.5479 14.5186 23.5487 14.5186 23.5494 14.5186C24.2152 14.5186 24.7973 14.1009 24.9983 13.4786C25.3088 12.5175 25.1165 11.519 24.4421 10.5909C23.7404 9.62556 22.5117 8.7541 20.9822 8.13732Z" fill="#E5621F"/>
<path d="M19.4607 15.0619C19.3577 14.9538 19.2149 14.8926 19.0656 14.8926H15.9998V24.8179H22.6892C22.9905 24.8179 23.2348 24.5736 23.2348 24.2722V22.0275C23.2348 20.0911 22.4994 18.2525 21.1639 16.8503L19.4607 15.0619Z" fill="#E5621F"/>
<path d="M16.0001 17.1121C16 17.1121 15.9999 17.1121 15.9998 17.1121V22.8233C15.9999 22.8233 16 22.8233 16.0001 22.8233C17.5747 22.8233 18.8557 21.5423 18.8557 19.9677C18.8557 18.3931 17.5747 17.1121 16.0001 17.1121Z" fill="#FFC21D"/>
</g>
<defs>
<clipPath id="clip0">
<rect width="18.2857" height="18.2857" fill="white" transform="translate(6.85706 6.85718)"/>
</clipPath>
</defs>
</svg>
