<svg width="32" height="32" viewBox="0 0 32 32" fill="none" xmlns="http://www.w3.org/2000/svg">
<rect width="32" height="32" rx="4" fill="#FFF5D9"/>
<g clip-path="url(#clip0)">
<path d="M15.9999 6.85718C12.4534 6.85718 9.57129 9.73932 9.57129 13.2857C9.57129 14.4857 9.9035 15.6536 10.5356 16.6608L15.5641 24.8899C15.6499 25.0291 15.7784 25.1149 15.9285 25.1363C16.132 25.1684 16.3571 25.0827 16.4749 24.8792L21.5178 16.575C22.1177 15.5894 22.4284 14.4429 22.4284 13.2857C22.4284 9.73932 19.5464 6.85718 15.9999 6.85718ZM15.9999 16.5C14.1999 16.5 12.7856 15.0429 12.7856 13.2857C12.7856 11.5179 14.232 10.0715 15.9999 10.0715C17.7678 10.0715 19.2141 11.5179 19.2141 13.2857C19.2141 15.0322 17.8213 16.5 15.9999 16.5Z" fill="#F07B3F"/>
<path d="M15.9999 6.85718V10.0715C17.7678 10.0715 19.2142 11.5179 19.2142 13.2857C19.2142 15.0322 17.8213 16.5 15.9999 16.5V25.1426C16.1827 25.1468 16.3707 25.0592 16.4749 24.8792L21.5177 16.575C22.1177 15.5894 22.4284 14.4429 22.4284 13.2857C22.4284 9.73932 19.5464 6.85718 15.9999 6.85718Z" fill="#E6621F"/>
</g>
<defs>
<clipPath id="clip0">
<rect width="18.2857" height="18.2857" fill="white" transform="translate(6.85706 6.85718)"/>
</clipPath>
</defs>
</svg>
