<svg width="72" height="72" viewBox="0 0 72 72" fill="none" xmlns="http://www.w3.org/2000/svg">
<path d="M58.5 72H13.5C6.0435 72 0 65.9565 0 58.5V13.5C0 6.0435 6.0435 0 13.5 0H58.5C65.9565 0 72 6.0435 72 13.5V58.5C72 65.9565 65.9565 72 58.5 72Z" fill="#F5E6FE"/>
<path d="M36.0002 23.9985C37.6567 23.9985 38.9995 22.6557 38.9995 20.9993C38.9995 19.3428 37.6567 18 36.0002 18C34.3438 18 33.001 19.3428 33.001 20.9993C33.001 22.6557 34.3438 23.9985 36.0002 23.9985Z" fill="#BE63F9"/>
<path d="M42.0007 29.6257C42.0007 27.351 40.1512 25.5015 37.8765 25.5015H34.1257C31.851 25.5015 30.0015 27.351 30.0015 29.6257V30.375C30.0015 30.996 30.5055 31.5 31.1265 31.5H40.8757C41.4967 31.5 42.0007 30.996 42.0007 30.375V29.6257Z" fill="#BE63F9"/>
<path d="M24.0007 46.4985C25.6572 46.4985 27 45.1557 27 43.4993C27 41.8428 25.6572 40.5 24.0007 40.5C22.3443 40.5 21.0015 41.8428 21.0015 43.4993C21.0015 45.1557 22.3443 46.4985 24.0007 46.4985Z" fill="#BE63F9"/>
<path d="M25.875 47.9993H22.1243C19.8495 47.9993 18 49.851 18 52.1258V52.875C18 53.496 18.504 54 19.125 54H28.8743C29.4953 54 29.9993 53.496 29.9993 52.875V52.1258C29.9993 49.851 28.1498 47.9993 25.875 47.9993Z" fill="#BE63F9"/>
<path d="M47.9993 46.4985C49.6557 46.4985 50.9985 45.1557 50.9985 43.4993C50.9985 41.8428 49.6557 40.5 47.9993 40.5C46.3428 40.5 45 41.8428 45 43.4993C45 45.1557 46.3428 46.4985 47.9993 46.4985Z" fill="#BE63F9"/>
<path d="M49.876 47.9993H46.1252C43.8505 47.9993 42.001 49.8488 42.001 52.1235V52.875C42.001 53.496 42.505 54 43.126 54H52.8752C53.4962 54 54.0002 53.496 54.0002 52.875V52.1258C54.0002 49.851 52.1507 47.9993 49.876 47.9993Z" fill="#BE63F9"/>
<path d="M47.9993 38.9992C47.3783 38.9992 46.8743 38.4952 46.8743 37.8742V37.4985H25.1235V37.8742C25.1235 38.4952 24.6195 38.9992 23.9985 38.9992C23.3775 38.9992 22.8735 38.4952 22.8735 37.8742V36.3735C22.8735 35.7525 23.3775 35.2485 23.9985 35.2485H47.9993C48.6203 35.2485 49.1243 35.7525 49.1243 36.3735V37.8742C49.1243 38.4952 48.6203 38.9992 47.9993 38.9992Z" fill="#D9A4FC"/>
<path d="M36 37.5007C35.379 37.5007 34.875 36.9967 34.875 36.3757V34.1257C34.875 33.5047 35.379 33.0007 36 33.0007C36.621 33.0007 37.125 33.5047 37.125 34.1257V36.3757C37.125 36.9967 36.621 37.5007 36 37.5007Z" fill="#D9A4FC"/>
</svg>
