<svg width="72" height="72" viewBox="0 0 72 72" fill="none" xmlns="http://www.w3.org/2000/svg">
<path d="M58.5 72H13.5C6.04358 72 0 65.9564 0 58.5V13.5C0 6.04358 6.04358 0 13.5 0H58.5C65.9564 0 72 6.04358 72 13.5V58.5C72 65.9564 65.9564 72 58.5 72Z" fill="#E3F8FA"/>
<path d="M49.8757 22.5H22.1243C19.8495 22.5 18 24.3495 18 26.6243V45.3735C18 47.6505 19.8495 49.5 22.1243 49.5H49.8735C52.1505 49.5 54 47.6505 54 45.3757V26.6265C54 24.3495 52.1505 22.5 49.8757 22.5Z" fill="#26C6DA"/>
<path d="M48.375 43.4993H40.1243C39.503 43.4993 38.9993 42.995 38.9993 42.3743C38.9993 41.753 39.503 41.2493 40.1243 41.2493H48.375C48.9957 41.2493 49.5 41.753 49.5 42.3743C49.5 42.995 48.9957 43.4993 48.375 43.4993Z" fill="#8CE1EB"/>
<path d="M48.375 37.5007H40.1243C39.503 37.5007 38.9993 36.997 38.9993 36.3757C38.9993 35.755 39.503 35.2507 40.1243 35.2507H48.375C48.9957 35.2507 49.5 35.755 49.5 36.3757C49.5 36.997 48.9957 37.5007 48.375 37.5007Z" fill="#8CE1EB"/>
<path d="M48.375 31.5H40.1243C39.503 31.5 38.9993 30.9957 38.9993 30.375C38.9993 29.7543 39.503 29.25 40.1243 29.25H48.375C48.9957 29.25 49.5 29.7543 49.5 30.375C49.5 30.9957 48.9957 31.5 48.375 31.5Z" fill="#8CE1EB"/>
<path d="M33.0007 32.2493C33.0007 34.3207 31.3215 36 29.25 36C27.1785 36 25.4993 34.3207 25.4993 32.2493C25.4993 30.1778 27.1785 28.4985 29.25 28.4985C31.3215 28.4985 33.0007 30.1778 33.0007 32.2493Z" fill="#E3F8FA"/>
<path d="M36 42.3743C36 42.995 35.4957 43.4993 34.875 43.4993H23.625C23.0043 43.4993 22.5 42.995 22.5 42.3743V41.625C22.5 39.3503 24.3495 37.5007 26.6243 37.5007H31.8735C34.1483 37.5007 35.9978 39.3503 35.9978 41.625V42.3743H36Z" fill="#E3F8FA"/>
</svg>
